# xmcd
#
# Track frame offsets: 
#        150
#        18648
#        34228
#        76297
#        100297
#        119947
#
# Disc length: 2174 seconds
#
# Revision: 0
# Processed by: cddbd v1.5.2PL0 Copyright (c) Steve Scherf et al.
# Submitted via: ExactAudioCopy v1.0b4
#
DISCID=4e087c06
DTITLE=Screamin' Jay Hawkins - The Art of Screamin' Jay Hawkins (LP)
DYEAR=1984
DGENRE=Blues
TTITLE0=Let Your Love, Little Darlin' Come Back To Me
TTITLE1=It Took Your Kind Of Love
TTITLE2=Love Nobody But Me
TTITLE3=Love Nobody But Me
TTITLE4=Furburger
TTITLE5=Want To Do It In A Cave
EXTD=
EXTT0=
EXTT1=
EXTT2=
EXTT3=
EXTT4=
EXTT5=
PLAYORDER=
